<svg width="57" height="57" viewBox="0 0 57 57" fill="none" xmlns="http://www.w3.org/2000/svg">
<g clip-path="url(#clip0)">
<path d="M28.4084 20.8687V44.3572L47.1083 40.8084V29.3641C47.1083 28.885 47.5255 28.5129 48.0014 28.5674L50.302 28.9234C50.7068 28.9699 51.0124 29.3125 51.0124 29.72V43.0152C51.0124 43.3931 50.7485 43.7197 50.3791 43.7991L29.9087 48.2006C28.9195 48.4132 27.8966 48.4156 26.9064 48.2073L6.65578 43.9477C6.29235 43.8713 6.02896 43.5552 6.01928 43.1838L5.66945 29.6814C5.65846 29.2579 5.97885 28.899 6.40077 28.8619L23.6025 27.3504C23.9008 27.3243 24.1596 27.1339 24.2737 26.8571L26.8652 20.5635C27.1995 19.7514 28.4084 19.9905 28.4084 20.8687ZM5.47489 13.1784L0.0768388 24.7168C-0.186926 25.2806 0.264417 25.9169 0.883687 25.8543L21.156 23.8059C21.4425 23.7769 21.6915 23.5966 21.8083 23.3334L28.3311 8.63821L6.05634 12.7295C5.80143 12.7764 5.58479 12.9436 5.47489 13.1784ZM28.3312 8.63821L35.2333 23.7928C35.3539 24.0576 35.6085 24.2363 35.8987 24.2597L56.1328 25.8869C56.7426 25.9359 57.1804 25.3115 56.9265 24.7549L51.6495 13.1861C51.5404 12.9468 51.321 12.7764 51.062 12.7297L28.3312 8.63821Z" fill="white"/>
</g>
<defs>
<clipPath id="clip0">
<rect width="57" height="57" fill="white"/>
</clipPath>
</defs>
</svg>
