<svg id="Layer_1" enable-background="new 0 0 512 512" height="512" viewBox="0 0 512 512" width="512" xmlns="http://www.w3.org/2000/svg"><g><g clip-rule="evenodd" fill-rule="evenodd"><path d="m234.131 216.031h43.597c3.203 0 5.812 2.637 5.812 5.84v48.756c0 3.203-2.608 5.839-5.812 5.839h-43.597c-3.203 0-5.812-2.636-5.812-5.839v-48.756c0-3.203 2.609-5.84 5.812-5.84z" fill="#407093"/><path d="m248.588 216.031h29.14c3.203 0 5.812 2.637 5.812 5.84v48.756c0 3.203-2.608 5.839-5.812 5.839h-29.14c3.203 0 5.839-2.636 5.839-5.839v-48.756c0-3.203-2.636-5.84-5.839-5.84z" fill="#365e7d"/><path d="m340.006 504.517v-159.763c0-46.263-37.843-84.077-84.076-84.077-46.263 0-84.077 37.844-84.077 84.077v159.763z" fill="#78c2a4"/><path d="m340.006 504.517v-159.763c0-46.263-37.843-84.077-84.076-84.077-4.961 0-9.837.426-14.57 1.275 39.373 6.945 69.534 41.529 69.534 82.802v159.763z" fill="#64aa91"/><path d="m255.93 457.318c38.182 0 69.308-33.562 69.308-74.723 0-41.186-31.126-74.749-69.308-74.749-38.184 0-69.337 33.563-69.337 74.749 0 41.162 31.153 74.723 69.337 74.723z" fill="#ccf49f"/><path d="m255.93 307.847c38.295 0 69.308 33.448 69.308 74.749 0 41.274-31.013 74.751-69.308 74.751-4.989 0-9.865-.596-14.57-1.672 31.294-7.2 54.766-37.191 54.766-73.079 0-35.914-23.472-65.877-54.766-73.105 4.704-1.077 9.58-1.644 14.57-1.644z" fill="#b3e59f"/><path d="m321.893 7.512c-9.071 0-16.498 7.398-16.498 16.47 0 9.468 8.759 13.946 16.498 16.497l43.965 14.458c3.855 1.275 5.528 4.082 5.528 7.625v52.498h48.784v-40.678c0-3.854 2.098-5.839 5.812-5.839h56.495c3.855 0 5.84-1.729 5.84-5.812v-7.71c0-3.401-1.105-6.944-4.11-9.978l-33.025-33.393c-2.608-2.664-5.896-4.139-9.922-4.139h-119.367z" fill="#cbe2ff"/><path d="m391.059 115.06h29.111v-40.678c0-3.854 2.098-5.839 5.812-5.839h-29.112c-3.713 0-5.811 1.984-5.811 5.839zm62.305-46.517h29.112c3.855 0 5.84-1.729 5.84-5.812v-7.71c0-3.401-1.105-6.944-4.11-9.978l-33.024-33.393c-2.608-2.664-5.896-4.139-9.922-4.139h-29.111c4.025 0 7.285 1.475 9.921 4.139l33.025 33.394c3.004 3.033 4.109 6.576 4.109 9.978v7.71c-.001 4.081-1.985 5.811-5.84 5.811z" fill="#9dc6fb"/><path d="m360.217 110.184h71.122c3.203 0 5.839 2.637 5.839 5.84v41.245l-43.539 7.993-39.233-7.993v-41.245c-.001-3.204 2.608-5.84 5.811-5.84z" fill="#407093"/><path d="m402.227 110.184h29.112c3.203 0 5.839 2.637 5.839 5.84v41.245h-29.14v-41.245c0-3.204-2.608-5.84-5.811-5.84z" fill="#365e7d"/><path d="m333.685 504.517h124.186c14.685 0 26.703-12.02 26.703-26.702v-156.192c0-56.07-47.396-45.554-47.396-110.95v-53.404h-82.772v53.404c0 65.368-47.424 54.908-47.424 110.95v156.192c-.001 14.682 12.019 26.702 26.703 26.702z" fill="#9dc6fb"/><path d="m428.73 504.517h29.141c14.685 0 26.703-12.02 26.703-26.702v-156.192c0-56.07-47.396-45.554-47.396-110.95v-53.404h-29.14v53.404c0 65.396 47.396 54.88 47.396 110.95v156.192c0 14.682-11.991 26.702-26.704 26.702z" fill="#80b4fb"/><path d="m164.426 247.326v-43.513c0-28.488-23.329-51.817-51.847-51.817-28.488 0-51.817 23.329-51.817 51.817v43.513z" fill="#e9f5ff"/><path d="m164.426 247.326v-43.513c0-28.488-23.329-51.817-51.847-51.817-5.046 0-9.921.736-14.542 2.098 21.459 6.321 37.249 26.277 37.249 49.72v43.513h29.14z" fill="#cbe2ff"/><path d="m101.042 204.04h23.103c3.203 0 5.812 2.636 5.812 5.839v42.918c0 3.203-2.608 5.839-5.812 5.839h-23.103c-3.203 0-5.839-2.636-5.839-5.839v-42.918c0-3.203 2.636-5.839 5.839-5.839z" fill="#e59b6c"/><path d="m60.762 247.326h103.664v37.87h-103.664z" fill="#407093"/><path d="m135.286 247.326h29.14v37.87h-29.14z" fill="#365e7d"/><path d="m50.643 504.517h123.903c14.824 0 26.929-12.133 26.929-26.93v-171.327c0-14.827-12.104-26.959-26.929-26.959h-123.903c-14.827 0-26.931 12.132-26.931 26.959v171.327c0 14.797 12.103 26.93 26.931 26.93z" fill="#dd636e"/><path d="m145.434 504.517h29.112c14.824 0 26.929-12.133 26.929-26.93v-171.327c0-14.827-12.104-26.959-26.929-26.959h-29.112c14.797 0 26.929 12.132 26.929 26.959v171.327c-.001 14.797-12.133 26.93-26.929 26.93z" fill="#dd636e"/><path d="m23.712 342.4h177.763v99.016h-177.763z" fill="#ffe07d"/><path d="m172.362 342.4h29.112v99.016h-29.112z" fill="#ffd064"/><path d="m306.981 346.767h31.664c7.256 0 9.808.794 13.832-4.904 10.404-14.797 25.938-24.18 43.315-24.18 17.348 0 32.881 9.383 43.313 24.18 3.997 5.698 6.576 4.904 13.805 4.904h31.664v78.719h-31.664c-7.229 0-9.808-.794-13.805 4.904-10.432 14.797-25.965 24.18-43.313 24.18-17.378 0-32.911-9.383-43.315-24.18-4.024-5.698-6.576-4.904-13.832-4.904h-31.664z" fill="#739ad6"/><path d="m73.234 412.786c11.48 0 20.863-9.383 20.863-20.863 0-11.509-9.383-20.892-20.863-20.892-11.509 0-20.892 9.383-20.892 20.892.001 11.48 9.384 20.863 20.892 20.863z" fill="#da4a54"/><path d="m455.434 346.767h29.141v78.719h-29.141z" fill="#5582be"/></g><path d="m174.546 497.004c5.244-.057 10.006-1.983 13.719-5.697 3.544-3.543 5.727-8.391 5.727-13.72v-28.659h-64.403c-4.14 0-7.513-3.345-7.513-7.512 0-4.139 3.373-7.483 7.513-7.483h64.403v-84.048h-162.797v84.048h64.405c4.139 0 7.512 3.345 7.512 7.483 0 4.167-3.373 7.512-7.512 7.512h-64.405v28.659c0 5.329 2.183 10.177 5.726 13.72 3.516 3.516 8.392 5.697 13.722 5.697zm-101.312-118.461c-3.714 0-7.059 1.474-9.468 3.912-2.438 2.409-3.94 5.755-3.94 9.468 0 3.685 1.503 7.03 3.94 9.439 2.409 2.438 5.754 3.94 9.468 3.94 3.685 0 7.029-1.503 9.439-3.94 2.438-2.409 3.939-5.754 3.939-9.439 0-3.713-1.502-7.059-3.939-9.468-2.409-2.438-5.754-3.912-9.439-3.912zm-20.069-6.69c5.131-5.16 12.218-8.334 20.069-8.334 7.823 0 14.91 3.174 20.041 8.334 5.159 5.13 8.334 12.218 8.334 20.069 0 7.824-3.175 14.91-8.334 20.069-5.131 5.131-12.218 8.306-20.041 8.306-7.852 0-14.938-3.175-20.069-8.306-5.159-5.159-8.334-12.245-8.334-20.069 0-7.851 3.175-14.939 8.334-20.069zm65.962 42.124c-4.139 0-7.512-3.373-7.512-7.512s3.373-7.483 7.512-7.483h52.725c4.139 0 7.483 3.345 7.483 7.483 0 4.139-3.345 7.512-7.483 7.512zm0-29.14c-4.139 0-7.512-3.347-7.512-7.485s3.373-7.512 7.512-7.512h52.725c4.139 0 7.483 3.374 7.483 7.512 0 4.139-3.345 7.485-7.483 7.485zm260.649 37.898c-4.139 0-7.513-3.345-7.513-7.483 0-4.139 3.374-7.513 7.513-7.513h32.032c4.139 0 7.483 3.374 7.483 7.513 0 4.138-3.345 7.483-7.483 7.483zm0-58.223c-4.139 0-7.513-3.374-7.513-7.512 0-4.139 3.374-7.484 7.513-7.484h32.032c4.139 0 7.483 3.346 7.483 7.484s-3.345 7.512-7.483 7.512zm0 29.112c-4.139 0-7.513-3.345-7.513-7.512 0-4.14 3.374-7.484 7.513-7.484h32.032c4.139 0 7.483 3.345 7.483 7.484 0 4.167-3.345 7.512-7.483 7.512zm-65.282-54.37h30.671c5.527-8.305 12.529-15.25 20.522-20.268 8.985-5.612 19.219-8.787 30.105-8.787 10.856 0 21.09 3.175 30.075 8.787 7.993 5.018 14.995 11.963 20.522 20.268h30.672v-17.631c0-23.982-9.922-34.47-20.24-45.384-13.322-14.031-27.156-28.658-27.156-65.566v-45.921h-67.775v28.913c0 4.139-3.346 7.512-7.484 7.512-4.166 0-7.512-3.373-7.512-7.512v-83.481c0-4.138 3.346-7.483 7.512-7.483h9.496v-40.536l-19.757-6.491c-1.786 18.51-9.581 57.628-43.257 80.675-3.401 2.324-8.08 1.445-10.404-1.956-2.324-3.43-1.445-8.079 1.956-10.404 31.097-21.288 36.284-59.244 37.135-73.105l-10.007-3.288c-4.592-1.502-9.553-3.656-13.605-7.03-4.763-3.969-8.052-9.27-8.052-16.583 0-6.604 2.694-12.586 7.031-16.951 4.336-4.339 10.346-7.032 16.951-7.032h44.674c4.139 0 7.483 3.373 7.483 7.512s-3.345 7.484-7.483 7.484h-44.674c-2.466 0-4.706 1.019-6.35 2.664-1.645 1.615-2.637 3.855-2.637 6.321 0 2.154 1.049 3.827 2.608 5.103 2.239 1.871 5.527 3.231 8.674 4.28l49.521 16.271c3.09.992 5.188 3.884 5.188 7.115v45.95h33.761v-34.157c0-4.139 3.373-7.483 7.512-7.483h60.635v-8.816l-36.823-37.247h-43.455c-4.139 0-7.483-3.346-7.483-7.484s3.344-7.513 7.482-7.513h46.574c1.928 0 3.855.766 5.329 2.268l40.82 41.273c1.559 1.36 2.551 3.401 2.551 5.642v19.36c0 4.139-3.345 7.512-7.483 7.512h-60.635v26.645h9.496c4.139 0 7.484 3.346 7.484 7.483v100.489c0 30.984 11.735 43.371 22.988 55.248 12.445 13.153 24.407 25.796 24.407 55.702v156.192c0 9.41-3.826 17.971-10.034 24.15-6.18 6.208-14.741 10.035-24.152 10.035-135.752 0-271.477 0-407.228 0-9.47 0-18.087-3.855-24.323-10.092-6.235-6.236-10.119-14.854-10.119-24.321v-36.171-135.155c0-9.497 3.884-18.087 10.119-24.351 6.236-6.236 14.854-10.092 24.323-10.092h2.636c0-22.678 0-45.326 0-68.004 0-16.3 6.661-31.153 17.405-41.896 10.742-10.743 25.597-17.404 41.896-17.404 16.328 0 31.182 6.661 41.926 17.404 10.743 10.743 17.404 25.597 17.404 41.896v68.004h2.637c7.086 0 13.691 2.154 19.19 5.867 7.937-7.369 17.093-13.294 27.071-17.461v-44.192c0-4.14 3.374-7.484 7.512-7.484h20.098v-29.452h-14.712c-17.83 0-25.768 16.385-25.768 16.441-1.843 3.714-6.321 5.216-10.034 3.401-3.714-1.843-5.216-6.321-3.402-10.035.029-.057 12.019-24.831 39.204-24.831h22.225 22.762c4.139 0 7.483 3.373 7.483 7.512s-3.345 7.512-7.483 7.512h-15.279v29.452h20.127c4.139 0 7.512 3.345 7.512 7.484v44.192c8.901 3.77 17.037 8.759 24.378 15.08 2.693-3.26 5.585-6.293 8.477-9.354 9.212-9.724 18.736-19.758 21.854-39.516.652-4.082 4.479-6.859 8.561-6.208 4.082.652 6.86 4.48 6.208 8.561-3.855 24.265-14.995 36.028-25.795 47.424-10.318 10.913-20.239 21.401-20.239 45.412v17.632zm162.569 93.743h-30.672c-5.527 8.306-12.529 15.25-20.522 20.267-8.985 5.613-19.219 8.787-30.075 8.787-10.887 0-21.12-3.174-30.105-8.787-7.993-5.017-14.995-11.962-20.522-20.267h-30.671v44.817c0 5.271 2.154 10.063 5.641 13.549 3.486 3.486 8.277 5.641 13.522 5.641h124.215c5.272 0 10.063-2.154 13.551-5.641 3.486-3.486 5.641-8.277 5.641-13.549v-44.817zm-127.732-78.747h-34.837v63.752h34.837c2.58 0 5.074 1.332 6.464 3.714 4.648 7.908 10.743 14.399 17.802 18.821 6.661 4.167 14.202 6.52 22.196 6.52 7.965 0 15.505-2.353 22.166-6.52 7.002-4.365 13.068-10.8 17.688-18.623 1.275-2.353 3.742-3.912 6.576-3.912h34.839v-63.752h-34.839c-2.551 0-5.073-1.332-6.463-3.714-4.62-7.908-10.743-14.399-17.802-18.821-6.661-4.168-14.201-6.521-22.166-6.521-7.994 0-15.535 2.353-22.196 6.521-7.002 4.365-13.068 10.8-17.689 18.623-1.275 2.352-3.741 3.912-6.576 3.912zm-124.017-79.655c-7.852 3.459-15.025 8.192-21.261 13.947 3.118 5.188 4.933 11.225 4.933 17.718v11.253c4.111-3.401 8.562-6.378 13.268-8.844 10.204-5.329 21.628-8.334 33.676-8.334 11.026 0 21.543 2.522 31.039 7.03 4.478 2.125 8.759 4.705 12.728 7.653.737-11.452 3.43-20.099 7.228-27.299-6.235-5.556-13.352-10.148-21.147-13.465-9.41-4.025-19.615-6.094-29.848-6.094-10.518.001-20.977 2.183-30.616 6.435zm50.713-19.19v-31.862h-20.097-20.127v31.862c6.492-1.475 13.21-2.24 20.127-2.24 6.887 0 13.634.794 20.097 2.24zm-180.824-58.848h34.753c4.168 0 7.512 3.345 7.512 7.483v35.775h19.446v-36.001c0-12.161-4.989-23.244-13.011-31.295-8.051-8.023-19.136-13.011-31.324-13.011-12.161 0-23.244 4.988-31.294 13.011-8.022 8.051-13.012 19.134-13.012 31.295v36.001h19.445v-35.775c.001-4.139 3.346-7.483 7.485-7.483zm27.27 14.995h-19.758v28.263h19.758zm34.441 60.265v-17.007c-29.538 0-59.104 0-88.641 0v17.008h88.641zm37.077 63.072v-28.629c0-5.357-2.183-10.206-5.727-13.722-3.515-3.543-8.391-5.726-13.719-5.726-41.301 0-82.603 0-123.903 0-5.33 0-10.206 2.183-13.722 5.726-3.543 3.516-5.726 8.364-5.726 13.722v28.629zm8.957 162.115h102.475c-3.742-5.471-5.925-12.104-5.925-19.189v-27.497c-1.332.992-2.722 1.927-4.11 2.834-6.35 4.082-13.323 7.2-20.693 9.185-3.997 1.077-8.106-1.304-9.155-5.301-1.078-3.997 1.304-8.107 5.301-9.156 5.867-1.587 11.395-4.082 16.469-7.342 4.479-2.862 8.561-6.293 12.189-10.204v-95.501c-5.387-5.81-11.793-10.572-18.907-13.946-7.54-3.571-15.874-5.556-24.661-5.556-9.639 0-18.709 2.381-26.76 6.576-7.738 4.054-14.627 9.836-20.184 16.895v87.563c3.941 4.988 8.505 9.355 13.579 12.897 5.584 3.884 11.792 6.831 18.453 8.617 3.997 1.049 6.378 5.159 5.301 9.156s-5.187 6.378-9.155 5.301c-8.306-2.211-16.102-5.925-23.131-10.829-1.73-1.219-3.431-2.494-5.047-3.854v29.935c-.001 7.171-2.24 13.889-6.039 19.416zm158.942-347.248h67.776v-32.06c-22.592 0-45.184 0-67.776 0z"/></g></svg>