<?xml version="1.0" encoding="iso-8859-1"?>
<!-- Generator: Adobe Illustrator 19.0.0, SVG Export Plug-In . SVG Version: 6.00 Build 0)  -->
<svg version="1.1" id="Capa_1" xmlns="http://www.w3.org/2000/svg" xmlns:xlink="http://www.w3.org/1999/xlink" x="0px" y="0px"
	 viewBox="0 0 512.757 512.757" style="enable-background:new 0 0 512.757 512.757;" xml:space="preserve">
<path style="fill:#CDD6E0;" d="M511.493,439.295c-2.133,3.2-5.333,10.667-9.6,10.667H11.226c-3.2,0-7.467-7.467-9.6-10.667
	c0,0-7.467,23.467,9.6,23.467h490.667C517.893,463.828,511.493,439.295,511.493,439.295z"/>
<path style="fill:#ACB3BA;" d="M460.293,346.495H52.826c-6.4,0-12.8,5.333-16,11.733l-34.133,76.8c-2.133,8.533,1.067,16,8.533,16
	h490.667c7.467,0,11.733-7.467,8.533-16l-34.133-76.8C474.159,351.828,466.693,346.495,460.293,346.495z"/>
<polygon style="fill:#CDD6E0;" points="310.959,433.962 192.559,433.962 205.359,394.495 299.226,394.495 "/>
<path style="fill:#334A5E;" d="M448.559,346.495h-384c-11.733,0-21.333-9.6-21.333-21.333V71.295c0-11.733,9.6-21.333,21.333-21.333
	h384c11.733,0,21.333,9.6,21.333,21.333v253.867C469.893,336.895,460.293,346.495,448.559,346.495z"/>
<rect x="65.63" y="73.43" style="fill:#40596B;" width="380.8" height="250.67"/>
<rect x="83.76" y="186.5" style="fill:#FFD15C;" width="60.8" height="22.4"/>
<g>
	<rect x="168.03" y="186.5" style="fill:#4CDBC4;" width="149.33" height="22.4"/>
	<rect x="339.76" y="186.5" style="fill:#4CDBC4;" width="90.67" height="22.4"/>
</g>
<rect x="83.76" y="254.76" style="fill:#FF7058;" width="125.87" height="22.4"/>
<rect x="233.09" y="254.76" style="fill:#CDD6E0;" width="115.2" height="22.4"/>
<g>
	<rect x="369.63" y="254.76" style="fill:#FF7058;" width="60.8" height="22.4"/>
	<rect x="81.63" y="118.23" style="fill:#FF7058;" width="81.07" height="22.4"/>
</g>
<rect x="367.49" y="118.23" style="fill:#FFD15C;" width="64" height="22.4"/>
<rect x="185.09" y="118.23" style="fill:#CDD6E0;" width="158.93" height="22.4"/>
<g>
</g>
<g>
</g>
<g>
</g>
<g>
</g>
<g>
</g>
<g>
</g>
<g>
</g>
<g>
</g>
<g>
</g>
<g>
</g>
<g>
</g>
<g>
</g>
<g>
</g>
<g>
</g>
<g>
</g>
</svg>
