<svg id="Flat" height="512" viewBox="0 0 512 512" width="512" xmlns="http://www.w3.org/2000/svg"><path d="m43.551 286a8 8 0 0 1 -7.089-8.818l3.938-36.254a183.328 183.328 0 0 1 66.24-122.007 8 8 0 0 1 11.47 1.457 7.976 7.976 0 0 1 -1.339 10.927 167.278 167.278 0 0 0 -60.462 111.351l-3.941 36.255a8 8 0 0 1 -8.817 7.089z" fill="#56c3c1"/><rect fill="#56c3c1" height="16" rx="8" transform="matrix(.108 -.994 .994 .108 -271.667 317.212)" width="16.094" x="32.895" y="302"/><path d="m339.42 480h-246.84a40 40 0 0 1 -39.76-44.32l21.35-196.43a142.665 142.665 0 0 1 131.41-126.87c3.44-.25 6.92-.38 10.42-.38s6.98.13 10.42.38a142.662 142.662 0 0 1 131.41 126.87l21.35 196.43a40 40 0 0 1 -39.76 44.32z" fill="#e3e4e2"/><path d="m183.344 135.987-28.021-103.987h120l-30.074 103.987z" fill="#e3e4e2"/><path d="m272 184a8 8 0 0 1 -11.221-1.4l-36.779-47.28v64.68a8 8 0 0 1 -8 8 8 8 0 0 1 -8-8v-64.68l-36.78 47.28a8 8 0 0 1 -11.22 1.4 8 8 0 0 1 -1.4-11.219l46.982-60.4c3.44-.25 6.92-.38 10.42-.38s6.98.13 10.42.38l46.982 60.4a8 8 0 0 1 -1.404 11.219z" fill="#c9c9c7"/><path d="m473.747 326.42a7.993 7.993 0 0 1 -8.936-6.328 121.373 121.373 0 0 0 -59.6-81.665 8 8 0 0 1 -3.32-10.451 7.976 7.976 0 0 1 11.046-3.555 137.36 137.36 0 0 1 67.563 92.534 7.989 7.989 0 0 1 -6.754 9.465z" fill="#56c3c1"/><path d="m419.8 480h-135.6a39.992 39.992 0 0 1 -39.8-43.98l10.84-108.46a97.243 97.243 0 0 1 193.52 0l10.84 108.46a39.992 39.992 0 0 1 -39.8 43.98z" fill="#0093b9"/><path d="m332.391 255.368-20.391-71.368h80l-20.391 71.368z" fill="#0093b9"/><path d="m400 296a8 8 0 0 1 -11.284-.863l-28.716-33.507v42.37a8 8 0 0 1 -8 8 8 8 0 0 1 -8-8v-42.37l-28.72 33.5a8 8 0 0 1 -11.28.87 8 8 0 0 1 -.864-11.276l37.788-44.09a97.749 97.749 0 0 1 22.16 0l37.788 44.09a8 8 0 0 1 -.872 11.276z" fill="#006e87"/><path d="m220.391 343.368-20.391-71.368h80l-20.391 71.368z" fill="#56c3c1"/><path d="m289.19 480h-98.38a40 40 0 0 1 -39.51-46.24l5.47-34.64a84.254 84.254 0 0 1 72.95-70.49 84.187 84.187 0 0 1 20.56 0 84.251 84.251 0 0 1 72.95 70.49l5.47 34.64a40 40 0 0 1 -39.51 46.24z" fill="#56c3c1"/><path d="m280 384a8 8 0 0 1 -11.16-1.86l-20.84-29.18v31.04a8 8 0 0 1 -8 8 8 8 0 0 1 -8-8v-31.04l-20.84 29.18a8 8 0 0 1 -11.16 1.86 8 8 0 0 1 -1.86-11.16l31.58-44.21a84.187 84.187 0 0 1 20.56 0l31.58 44.21a8 8 0 0 1 -1.86 11.16z" fill="#1aa7a1"/></svg>